<svg width="16" height="16" viewBox="0 0 16 16" fill="none" xmlns="http://www.w3.org/2000/svg">
<path d="M14.6667 10.6666V2.66665C14.6667 1.93331 14.0667 1.33331 13.3334 1.33331H5.33337C4.60004 1.33331 4.00004 1.93331 4.00004 2.66665V10.6666C4.00004 11.4 4.60004 12 5.33337 12H13.3334C14.0667 12 14.6667 11.4 14.6667 10.6666ZM7.60004 8.35331L8.68671 9.80665L10.4067 7.65998C10.54 7.49331 10.7934 7.49331 10.9267 7.65998L12.9 10.1266C13.0734 10.3466 12.92 10.6666 12.64 10.6666H6.00004C5.72671 10.6666 5.56671 10.3533 5.73337 10.1333L7.06671 8.35331C7.20004 8.17998 7.46671 8.17998 7.60004 8.35331V8.35331ZM1.33337 4.66665V13.3333C1.33337 14.0666 1.93337 14.6666 2.66671 14.6666H11.3334C11.7 14.6666 12 14.3666 12 14C12 13.6333 11.7 13.3333 11.3334 13.3333H3.33337C2.96671 13.3333 2.66671 13.0333 2.66671 12.6666V4.66665C2.66671 4.29998 2.36671 3.99998 2.00004 3.99998C1.63337 3.99998 1.33337 4.29998 1.33337 4.66665Z" fill="white"/>
</svg>
