<svg width="45" height="46" viewBox="0 0 45 46" fill="none" xmlns="http://www.w3.org/2000/svg">
<path d="M29.0626 26.8685H27.5813L27.0563 26.3622C29.3063 23.7372 30.4688 20.156 29.8313 16.3497C28.9501 11.1372 24.6 6.97473 19.35 6.33723C11.4188 5.36223 4.76255 12.0372 5.7188 19.9685C6.3563 25.2185 10.5188 29.5685 15.7313 30.4497C19.5375 31.0872 23.1188 29.9247 25.7438 27.6747L26.2501 28.1997V29.681L34.2376 37.6497C35.0063 38.4185 36.2438 38.4185 37.0126 37.6497L37.0313 37.631C37.8001 36.8622 37.8001 35.6247 37.0313 34.856L29.0626 26.8685ZM17.8126 26.8685C13.1438 26.8685 9.37505 23.0997 9.37505 18.431C9.37505 13.7622 13.1438 9.99348 17.8126 9.99348C22.4813 9.99348 26.2501 13.7622 26.2501 18.431C26.2501 23.0997 22.4813 26.8685 17.8126 26.8685Z" fill="white"/>
</svg>
